{
	"asset":{
		"copyright":"Oxyno83",
		"generator":"Khronos glTF Blender I/O v5.2.39",
		"version":"2.0"
	},
	"scene":0,
	"scenes":[
		{
			"name":"Scene",
			"nodes":[
				0,
				1,
				2,
				3,
				4,
				5,
				6,
				7,
				8
			]
		}
	],
	"nodes":[
		{
			"mesh":0,
			"name":"Carton1",
			"translation":[
				2.095200300216675,
				2.2185323238372803,
				2.272588014602661
			]
		},
		{
			"mesh":1,
			"name":"Carton1.001",
			"translation":[
				0.9767385721206665,
				1.7714080810546875,
				2.272587776184082
			]
		},
		{
			"mesh":2,
			"name":"Carton1.002",
			"translation":[
				0.49662303924560547,
				1.3628438711166382,
				2.272587537765503
			]
		},
		{
			"mesh":3,
			"name":"Carton1.003",
			"translation":[
				1.0610036849975586,
				1.3628438711166382,
				2.272587776184082
			]
		},
		{
			"mesh":4,
			"name":"Carton1.004",
			"translation":[
				2.2660303115844727,
				1.7966556549072266,
				2.272588014602661
			]
		},
		{
			"mesh":5,
			"name":"Carton2",
			"translation":[
				1.4062607288360596,
				2.273867607116699,
				2.272587776184082
			]
		},
		{
			"mesh":6,
			"name":"Carton3",
			"translation":[
				0.6818612813949585,
				2.273867607116699,
				2.272587776184082
			]
		},
		{
			"mesh":7,
			"name":"Carton3.001",
			"rotation":[
				0,
				0.2164396196603775,
				0,
				0.9762960076332092
			],
			"scale":[
				1.149311900138855,
				1.149311900138855,
				1.149311900138855
			],
			"translation":[
				-2.2472524642944336,
				0.32938826084136963,
				2.2449231147766113
			]
		},
		{
			"mesh":8,
			"name":"Carton3.002",
			"rotation":[
				0,
				0.6087615489959717,
				0,
				0.7933533787727356
			],
			"scale":[
				0.9859486222267151,
				0.9859486222267151,
				0.9859486222267151
			],
			"translation":[
				-2.2472524642944336,
				0.8522311449050903,
				2.2449231147766113
			]
		}
	],
	"materials":[
		{
			"doubleSided":true,
			"name":"Carton",
			"pbrMetallicRoughness":{
				"baseColorFactor":[
					0.800000011920929,
					0.800000011920929,
					0.800000011920929,
					1
				],
				"metallicFactor":0
			}
		}
	],
	"meshes":[
		{
			"name":"Cube.023",
			"primitives":[
				{
					"attributes":{
						"POSITION":0,
						"NORMAL":1,
						"TEXCOORD_0":2,
						"TANGENT":3
					},
					"indices":4,
					"material":0
				}
			]
		},
		{
			"name":"Cube.026",
			"primitives":[
				{
					"attributes":{
						"POSITION":5,
						"NORMAL":6,
						"TEXCOORD_0":7,
						"TANGENT":8
					},
					"indices":9,
					"material":0
				}
			]
		},
		{
			"name":"Cube.038",
			"primitives":[
				{
					"attributes":{
						"POSITION":10,
						"NORMAL":11,
						"TEXCOORD_0":12,
						"TANGENT":13
					},
					"indices":14,
					"material":0
				}
			]
		},
		{
			"name":"Cube.039",
			"primitives":[
				{
					"attributes":{
						"POSITION":15,
						"NORMAL":16,
						"TEXCOORD_0":17,
						"TANGENT":18
					},
					"indices":19,
					"material":0
				}
			]
		},
		{
			"name":"Cube.040",
			"primitives":[
				{
					"attributes":{
						"POSITION":20,
						"NORMAL":21,
						"TEXCOORD_0":22,
						"TANGENT":23
					},
					"indices":24,
					"material":0
				}
			]
		},
		{
			"name":"Cube.041",
			"primitives":[
				{
					"attributes":{
						"POSITION":25,
						"NORMAL":26,
						"TEXCOORD_0":27,
						"TANGENT":28
					},
					"indices":29,
					"material":0
				}
			]
		},
		{
			"name":"Cube.042",
			"primitives":[
				{
					"attributes":{
						"POSITION":30,
						"NORMAL":31,
						"TEXCOORD_0":32,
						"TANGENT":33
					},
					"indices":29,
					"material":0
				}
			]
		},
		{
			"name":"Cube.043",
			"primitives":[
				{
					"attributes":{
						"POSITION":34,
						"NORMAL":35,
						"TEXCOORD_0":36,
						"TANGENT":37
					},
					"indices":29,
					"material":0
				}
			]
		},
		{
			"name":"Cube.044",
			"primitives":[
				{
					"attributes":{
						"POSITION":38,
						"NORMAL":39,
						"TEXCOORD_0":40,
						"TANGENT":41
					},
					"indices":29,
					"material":0
				}
			]
		}
	],
	"accessors":[
		{
			"bufferView":0,
			"componentType":5126,
			"count":24,
			"max":[
				0.21604299545288086,
				0.1782243251800537,
				0.21604275703430176
			],
			"min":[
				-0.21604299545288086,
				-0.17822480201721191,
				-0.21604323387145996
			],
			"type":"VEC3"
		},
		{
			"bufferView":1,
			"componentType":5126,
			"count":24,
			"type":"VEC3"
		},
		{
			"bufferView":2,
			"componentType":5126,
			"count":24,
			"type":"VEC2"
		},
		{
			"bufferView":3,
			"componentType":5126,
			"count":24,
			"type":"VEC4"
		},
		{
			"bufferView":4,
			"componentType":5123,
			"count":36,
			"type":"SCALAR"
		},
		{
			"bufferView":5,
			"componentType":5126,
			"count":24,
			"max":[
				0.1720062494277954,
				0.1259169578552246,
				0.17200636863708496
			],
			"min":[
				-0.17200630903244019,
				-0.1259167194366455,
				-0.17200636863708496
			],
			"type":"VEC3"
		},
		{
			"bufferView":6,
			"componentType":5126,
			"count":24,
			"type":"VEC3"
		},
		{
			"bufferView":7,
			"componentType":5126,
			"count":24,
			"type":"VEC2"
		},
		{
			"bufferView":8,
			"componentType":5126,
			"count":24,
			"type":"VEC4"
		},
		{
			"bufferView":9,
			"componentType":5123,
			"count":36,
			"type":"SCALAR"
		},
		{
			"bufferView":10,
			"componentType":5126,
			"count":24,
			"max":[
				0.15421438217163086,
				0.1259167194366455,
				0.15421462059020996
			],
			"min":[
				-0.15421438217163086,
				-0.1259169578552246,
				-0.15421390533447266
			],
			"type":"VEC3"
		},
		{
			"bufferView":11,
			"componentType":5126,
			"count":24,
			"type":"VEC3"
		},
		{
			"bufferView":12,
			"componentType":5126,
			"count":24,
			"type":"VEC2"
		},
		{
			"bufferView":13,
			"componentType":5126,
			"count":24,
			"type":"VEC4"
		},
		{
			"bufferView":14,
			"componentType":5123,
			"count":36,
			"type":"SCALAR"
		},
		{
			"bufferView":15,
			"componentType":5126,
			"count":24,
			"max":[
				0.14934659004211426,
				0.1259167194366455,
				0.14934659004211426
			],
			"min":[
				-0.14934629201889038,
				-0.1259169578552246,
				-0.14934659004211426
			],
			"type":"VEC3"
		},
		{
			"bufferView":16,
			"componentType":5126,
			"count":24,
			"type":"VEC3"
		},
		{
			"bufferView":17,
			"componentType":5126,
			"count":24,
			"type":"VEC2"
		},
		{
			"bufferView":18,
			"componentType":5126,
			"count":24,
			"type":"VEC4"
		},
		{
			"bufferView":19,
			"componentType":5123,
			"count":36,
			"type":"SCALAR"
		},
		{
			"bufferView":20,
			"componentType":5126,
			"count":24,
			"max":[
				0.15691614151000977,
				0.15171146392822266,
				0.15691590309143066
			],
			"min":[
				-0.15691614151000977,
				-0.15171146392822266,
				-0.15691637992858887
			],
			"type":"VEC3"
		},
		{
			"bufferView":21,
			"componentType":5126,
			"count":24,
			"type":"VEC3"
		},
		{
			"bufferView":22,
			"componentType":5126,
			"count":24,
			"type":"VEC2"
		},
		{
			"bufferView":23,
			"componentType":5126,
			"count":24,
			"type":"VEC4"
		},
		{
			"bufferView":24,
			"componentType":5123,
			"count":36,
			"type":"SCALAR"
		},
		{
			"bufferView":25,
			"componentType":5126,
			"count":24,
			"max":[
				0.26397693157196045,
				0.24635887145996094,
				0.2639768123626709
			],
			"min":[
				-0.26397693157196045,
				-0.24635887145996094,
				-0.2639768123626709
			],
			"type":"VEC3"
		},
		{
			"bufferView":26,
			"componentType":5126,
			"count":24,
			"type":"VEC3"
		},
		{
			"bufferView":27,
			"componentType":5126,
			"count":24,
			"type":"VEC2"
		},
		{
			"bufferView":28,
			"componentType":5126,
			"count":24,
			"type":"VEC4"
		},
		{
			"bufferView":29,
			"componentType":5123,
			"count":36,
			"type":"SCALAR"
		},
		{
			"bufferView":30,
			"componentType":5126,
			"count":24,
			"max":[
				0.26397693157196045,
				0.24635887145996094,
				0.2639768123626709
			],
			"min":[
				-0.2639768421649933,
				-0.24635887145996094,
				-0.2639768123626709
			],
			"type":"VEC3"
		},
		{
			"bufferView":31,
			"componentType":5126,
			"count":24,
			"type":"VEC3"
		},
		{
			"bufferView":32,
			"componentType":5126,
			"count":24,
			"type":"VEC2"
		},
		{
			"bufferView":33,
			"componentType":5126,
			"count":24,
			"type":"VEC4"
		},
		{
			"bufferView":34,
			"componentType":5126,
			"count":24,
			"max":[
				0.26397693157196045,
				0.24635887145996094,
				0.2639768123626709
			],
			"min":[
				-0.2639768421649933,
				-0.24635887145996094,
				-0.2639768123626709
			],
			"type":"VEC3"
		},
		{
			"bufferView":35,
			"componentType":5126,
			"count":24,
			"type":"VEC3"
		},
		{
			"bufferView":36,
			"componentType":5126,
			"count":24,
			"type":"VEC2"
		},
		{
			"bufferView":37,
			"componentType":5126,
			"count":24,
			"type":"VEC4"
		},
		{
			"bufferView":38,
			"componentType":5126,
			"count":24,
			"max":[
				0.26397693157196045,
				0.24635887145996094,
				0.2639768123626709
			],
			"min":[
				-0.2639768421649933,
				-0.24635887145996094,
				-0.2639768123626709
			],
			"type":"VEC3"
		},
		{
			"bufferView":39,
			"componentType":5126,
			"count":24,
			"type":"VEC3"
		},
		{
			"bufferView":40,
			"componentType":5126,
			"count":24,
			"type":"VEC2"
		},
		{
			"bufferView":41,
			"componentType":5126,
			"count":24,
			"type":"VEC4"
		}
	],
	"bufferViews":[
		{
			"buffer":0,
			"byteLength":288,
			"byteOffset":0,
			"target":34962
		},
		{
			"buffer":0,
			"byteLength":288,
			"byteOffset":288,
			"target":34962
		},
		{
			"buffer":0,
			"byteLength":192,
			"byteOffset":576,
			"target":34962
		},
		{
			"buffer":0,
			"byteLength":384,
			"byteOffset":768,
			"target":34962
		},
		{
			"buffer":0,
			"byteLength":72,
			"byteOffset":1152,
			"target":34963
		},
		{
			"buffer":0,
			"byteLength":288,
			"byteOffset":1224,
			"target":34962
		},
		{
			"buffer":0,
			"byteLength":288,
			"byteOffset":1512,
			"target":34962
		},
		{
			"buffer":0,
			"byteLength":192,
			"byteOffset":1800,
			"target":34962
		},
		{
			"buffer":0,
			"byteLength":384,
			"byteOffset":1992,
			"target":34962
		},
		{
			"buffer":0,
			"byteLength":72,
			"byteOffset":2376,
			"target":34963
		},
		{
			"buffer":0,
			"byteLength":288,
			"byteOffset":2448,
			"target":34962
		},
		{
			"buffer":0,
			"byteLength":288,
			"byteOffset":2736,
			"target":34962
		},
		{
			"buffer":0,
			"byteLength":192,
			"byteOffset":3024,
			"target":34962
		},
		{
			"buffer":0,
			"byteLength":384,
			"byteOffset":3216,
			"target":34962
		},
		{
			"buffer":0,
			"byteLength":72,
			"byteOffset":3600,
			"target":34963
		},
		{
			"buffer":0,
			"byteLength":288,
			"byteOffset":3672,
			"target":34962
		},
		{
			"buffer":0,
			"byteLength":288,
			"byteOffset":3960,
			"target":34962
		},
		{
			"buffer":0,
			"byteLength":192,
			"byteOffset":4248,
			"target":34962
		},
		{
			"buffer":0,
			"byteLength":384,
			"byteOffset":4440,
			"target":34962
		},
		{
			"buffer":0,
			"byteLength":72,
			"byteOffset":4824,
			"target":34963
		},
		{
			"buffer":0,
			"byteLength":288,
			"byteOffset":4896,
			"target":34962
		},
		{
			"buffer":0,
			"byteLength":288,
			"byteOffset":5184,
			"target":34962
		},
		{
			"buffer":0,
			"byteLength":192,
			"byteOffset":5472,
			"target":34962
		},
		{
			"buffer":0,
			"byteLength":384,
			"byteOffset":5664,
			"target":34962
		},
		{
			"buffer":0,
			"byteLength":72,
			"byteOffset":6048,
			"target":34963
		},
		{
			"buffer":0,
			"byteLength":288,
			"byteOffset":6120,
			"target":34962
		},
		{
			"buffer":0,
			"byteLength":288,
			"byteOffset":6408,
			"target":34962
		},
		{
			"buffer":0,
			"byteLength":192,
			"byteOffset":6696,
			"target":34962
		},
		{
			"buffer":0,
			"byteLength":384,
			"byteOffset":6888,
			"target":34962
		},
		{
			"buffer":0,
			"byteLength":72,
			"byteOffset":7272,
			"target":34963
		},
		{
			"buffer":0,
			"byteLength":288,
			"byteOffset":7344,
			"target":34962
		},
		{
			"buffer":0,
			"byteLength":288,
			"byteOffset":7632,
			"target":34962
		},
		{
			"buffer":0,
			"byteLength":192,
			"byteOffset":7920,
			"target":34962
		},
		{
			"buffer":0,
			"byteLength":384,
			"byteOffset":8112,
			"target":34962
		},
		{
			"buffer":0,
			"byteLength":288,
			"byteOffset":8496,
			"target":34962
		},
		{
			"buffer":0,
			"byteLength":288,
			"byteOffset":8784,
			"target":34962
		},
		{
			"buffer":0,
			"byteLength":192,
			"byteOffset":9072,
			"target":34962
		},
		{
			"buffer":0,
			"byteLength":384,
			"byteOffset":9264,
			"target":34962
		},
		{
			"buffer":0,
			"byteLength":288,
			"byteOffset":9648,
			"target":34962
		},
		{
			"buffer":0,
			"byteLength":288,
			"byteOffset":9936,
			"target":34962
		},
		{
			"buffer":0,
			"byteLength":192,
			"byteOffset":10224,
			"target":34962
		},
		{
			"buffer":0,
			"byteLength":384,
			"byteOffset":10416,
			"target":34962
		}
	],
	"buffers":[
		{
			"byteLength":10800,
			"uri":"cardboard_boxes.bin"
		}
	]
}
