{
	"asset":{
		"copyright":"Oxyno83",
		"generator":"Khronos glTF Blender I/O v5.2.39",
		"version":"2.0"
	},
	"scene":0,
	"scenes":[
		{
			"name":"Scene",
			"nodes":[
				0,
				1,
				2,
				3,
				4,
				5,
				6,
				7,
				8,
				9,
				10,
				11,
				12,
				13,
				14,
				15,
				16,
				17,
				18,
				19,
				20,
				21,
				22,
				23,
				24
			]
		}
	],
	"nodes":[
		{
			"mesh":0,
			"name":"mur1"
		},
		{
			"mesh":1,
			"name":"mur1.001"
		},
		{
			"mesh":2,
			"name":"mur1.002"
		},
		{
			"mesh":3,
			"name":"mur1.003"
		},
		{
			"mesh":4,
			"name":"mur1.004"
		},
		{
			"mesh":5,
			"name":"mur1.005"
		},
		{
			"mesh":6,
			"name":"mur1.006"
		},
		{
			"mesh":7,
			"name":"mur1.007"
		},
		{
			"mesh":8,
			"name":"mur1.008"
		},
		{
			"mesh":9,
			"name":"mur1.009"
		},
		{
			"mesh":10,
			"name":"mur1.010"
		},
		{
			"mesh":11,
			"name":"mur1.011"
		},
		{
			"mesh":12,
			"name":"mur1.012"
		},
		{
			"mesh":13,
			"name":"mur1.013"
		},
		{
			"mesh":14,
			"name":"mur2"
		},
		{
			"mesh":15,
			"name":"mur2.001"
		},
		{
			"mesh":16,
			"name":"mur2.002"
		},
		{
			"mesh":17,
			"name":"mur2.003"
		},
		{
			"mesh":18,
			"name":"mur2.004"
		},
		{
			"mesh":19,
			"name":"mur3"
		},
		{
			"mesh":20,
			"name":"mur3.001"
		},
		{
			"mesh":21,
			"name":"mur3.002",
			"translation":[
				0,
				0,
				0.007159125059843063
			]
		},
		{
			"mesh":22,
			"name":"mur3.003"
		},
		{
			"mesh":23,
			"name":"mur3.004"
		},
		{
			"mesh":24,
			"name":"mur fenetre"
		}
	],
	"materials":[
		{
			"doubleSided":true,
			"name":"walls",
			"pbrMetallicRoughness":{
				"baseColorFactor":[
					0.12990237772464752,
					0.12990237772464752,
					0.12990237772464752,
					1
				],
				"roughnessFactor":0.5
			}
		}
	],
	"meshes":[
		{
			"name":"Cube.005",
			"primitives":[
				{
					"attributes":{
						"POSITION":0,
						"NORMAL":1,
						"TEXCOORD_0":2,
						"TANGENT":3
					},
					"indices":4,
					"material":0
				}
			]
		},
		{
			"name":"Cube.006",
			"primitives":[
				{
					"attributes":{
						"POSITION":5,
						"NORMAL":6,
						"TEXCOORD_0":7,
						"TANGENT":8
					},
					"indices":9,
					"material":0
				}
			]
		},
		{
			"name":"Cube.008",
			"primitives":[
				{
					"attributes":{
						"POSITION":10,
						"NORMAL":11,
						"TEXCOORD_0":12,
						"TANGENT":13
					},
					"indices":14,
					"material":0
				}
			]
		},
		{
			"name":"Cube.009",
			"primitives":[
				{
					"attributes":{
						"POSITION":15,
						"NORMAL":16,
						"TEXCOORD_0":17,
						"TANGENT":18
					},
					"indices":19,
					"material":0
				}
			]
		},
		{
			"name":"Cube.017",
			"primitives":[
				{
					"attributes":{
						"POSITION":20,
						"NORMAL":21,
						"TEXCOORD_0":22,
						"TANGENT":23
					},
					"indices":4,
					"material":0
				}
			]
		},
		{
			"name":"Cube.021",
			"primitives":[
				{
					"attributes":{
						"POSITION":24,
						"NORMAL":25,
						"TEXCOORD_0":26,
						"TANGENT":27
					},
					"indices":14,
					"material":0
				}
			]
		},
		{
			"name":"Cube.022",
			"primitives":[
				{
					"attributes":{
						"POSITION":28,
						"NORMAL":29,
						"TEXCOORD_0":30,
						"TANGENT":31
					},
					"indices":14,
					"material":0
				}
			]
		},
		{
			"name":"Cube.025",
			"primitives":[
				{
					"attributes":{
						"POSITION":32,
						"NORMAL":33,
						"TEXCOORD_0":34,
						"TANGENT":35
					},
					"indices":19,
					"material":0
				}
			]
		},
		{
			"name":"Cube.028",
			"primitives":[
				{
					"attributes":{
						"POSITION":36,
						"NORMAL":37,
						"TEXCOORD_0":38,
						"TANGENT":39
					},
					"indices":4,
					"material":0
				}
			]
		},
		{
			"name":"Cube.029",
			"primitives":[
				{
					"attributes":{
						"POSITION":40,
						"NORMAL":41,
						"TEXCOORD_0":42,
						"TANGENT":43
					},
					"indices":4,
					"material":0
				}
			]
		},
		{
			"name":"Cube.030",
			"primitives":[
				{
					"attributes":{
						"POSITION":44,
						"NORMAL":45,
						"TEXCOORD_0":46,
						"TANGENT":47
					},
					"indices":19,
					"material":0
				}
			]
		},
		{
			"name":"Cube.033",
			"primitives":[
				{
					"attributes":{
						"POSITION":48,
						"NORMAL":49,
						"TEXCOORD_0":50,
						"TANGENT":51
					},
					"indices":19,
					"material":0
				}
			]
		},
		{
			"name":"Cube.034",
			"primitives":[
				{
					"attributes":{
						"POSITION":52,
						"NORMAL":53,
						"TEXCOORD_0":54,
						"TANGENT":55
					},
					"indices":19,
					"material":0
				}
			]
		},
		{
			"name":"Cube.035",
			"primitives":[
				{
					"attributes":{
						"POSITION":56,
						"NORMAL":57,
						"TEXCOORD_0":58,
						"TANGENT":59
					},
					"indices":4,
					"material":0
				}
			]
		},
		{
			"name":"Cube.004",
			"primitives":[
				{
					"attributes":{
						"POSITION":60,
						"NORMAL":61,
						"TEXCOORD_0":62,
						"TANGENT":63
					},
					"indices":64,
					"material":0
				}
			]
		},
		{
			"name":"Cube.007",
			"primitives":[
				{
					"attributes":{
						"POSITION":65,
						"NORMAL":66,
						"TEXCOORD_0":67,
						"TANGENT":68
					},
					"indices":69,
					"material":0
				}
			]
		},
		{
			"name":"Cube.013",
			"primitives":[
				{
					"attributes":{
						"POSITION":70,
						"NORMAL":71,
						"TEXCOORD_0":72,
						"TANGENT":73
					},
					"indices":64,
					"material":0
				}
			]
		},
		{
			"name":"Cube.014",
			"primitives":[
				{
					"attributes":{
						"POSITION":74,
						"NORMAL":75,
						"TEXCOORD_0":76,
						"TANGENT":77
					},
					"indices":64,
					"material":0
				}
			]
		},
		{
			"name":"Cube.015",
			"primitives":[
				{
					"attributes":{
						"POSITION":78,
						"NORMAL":79,
						"TEXCOORD_0":80,
						"TANGENT":81
					},
					"indices":82,
					"material":0
				}
			]
		},
		{
			"name":"Cube.003",
			"primitives":[
				{
					"attributes":{
						"POSITION":83,
						"NORMAL":84,
						"TEXCOORD_0":85,
						"TANGENT":86
					},
					"indices":87,
					"material":0
				}
			]
		},
		{
			"name":"Cube.010",
			"primitives":[
				{
					"attributes":{
						"POSITION":88,
						"NORMAL":89,
						"TEXCOORD_0":90,
						"TANGENT":91
					},
					"indices":92,
					"material":0
				}
			]
		},
		{
			"name":"Cube.020",
			"primitives":[
				{
					"attributes":{
						"POSITION":93,
						"NORMAL":94,
						"TEXCOORD_0":95,
						"TANGENT":96
					},
					"indices":97,
					"material":0
				}
			]
		},
		{
			"name":"Cube.027",
			"primitives":[
				{
					"attributes":{
						"POSITION":98,
						"NORMAL":99,
						"TEXCOORD_0":100,
						"TANGENT":101
					},
					"indices":102,
					"material":0
				}
			]
		},
		{
			"name":"Cube.031",
			"primitives":[
				{
					"attributes":{
						"POSITION":103,
						"NORMAL":104,
						"TEXCOORD_0":105,
						"TANGENT":106
					},
					"indices":107,
					"material":0
				}
			]
		},
		{
			"name":"Cube.012",
			"primitives":[
				{
					"attributes":{
						"POSITION":108,
						"NORMAL":109,
						"TEXCOORD_0":110,
						"TANGENT":111
					},
					"indices":112,
					"material":0
				}
			]
		}
	],
	"accessors":[
		{
			"bufferView":0,
			"componentType":5126,
			"count":24,
			"max":[
				2.8988208770751953,
				3.0275638103485107,
				3.0096640586853027
			],
			"min":[
				-3.1011791229248047,
				0.02756357192993164,
				2.7096638679504395
			],
			"type":"VEC3"
		},
		{
			"bufferView":1,
			"componentType":5126,
			"count":24,
			"type":"VEC3"
		},
		{
			"bufferView":2,
			"componentType":5126,
			"count":24,
			"type":"VEC2"
		},
		{
			"bufferView":3,
			"componentType":5126,
			"count":24,
			"type":"VEC4"
		},
		{
			"bufferView":4,
			"componentType":5123,
			"count":36,
			"type":"SCALAR"
		},
		{
			"bufferView":5,
			"componentType":5126,
			"count":24,
			"max":[
				-4.949232578277588,
				3.0300354957580566,
				-3.0244827270507812
			],
			"min":[
				-9.088942527770996,
				0.03003537654876709,
				-3.3244829177856445
			],
			"type":"VEC3"
		},
		{
			"bufferView":6,
			"componentType":5126,
			"count":24,
			"type":"VEC3"
		},
		{
			"bufferView":7,
			"componentType":5126,
			"count":24,
			"type":"VEC2"
		},
		{
			"bufferView":8,
			"componentType":5126,
			"count":24,
			"type":"VEC4"
		},
		{
			"bufferView":9,
			"componentType":5123,
			"count":36,
			"type":"SCALAR"
		},
		{
			"bufferView":10,
			"componentType":5126,
			"count":24,
			"max":[
				-16.704465866088867,
				2.970778465270996,
				-3.0029807090759277
			],
			"min":[
				-17.004465103149414,
				-0.029221653938293457,
				-9.002983093261719
			],
			"type":"VEC3"
		},
		{
			"bufferView":11,
			"componentType":5126,
			"count":24,
			"type":"VEC3"
		},
		{
			"bufferView":12,
			"componentType":5126,
			"count":24,
			"type":"VEC2"
		},
		{
			"bufferView":13,
			"componentType":5126,
			"count":24,
			"type":"VEC4"
		},
		{
			"bufferView":14,
			"componentType":5123,
			"count":36,
			"type":"SCALAR"
		},
		{
			"bufferView":15,
			"componentType":5126,
			"count":24,
			"max":[
				-2.8684682846069336,
				3.0300354957580566,
				-0.5885194540023804
			],
			"min":[
				-9.185918807983398,
				0.03003537654876709,
				-0.8885196447372437
			],
			"type":"VEC3"
		},
		{
			"bufferView":16,
			"componentType":5126,
			"count":24,
			"type":"VEC3"
		},
		{
			"bufferView":17,
			"componentType":5126,
			"count":24,
			"type":"VEC2"
		},
		{
			"bufferView":18,
			"componentType":5126,
			"count":24,
			"type":"VEC4"
		},
		{
			"bufferView":19,
			"componentType":5123,
			"count":36,
			"type":"SCALAR"
		},
		{
			"bufferView":20,
			"componentType":5126,
			"count":24,
			"max":[
				-2.781155586242676,
				3.0300354957580566,
				1.3186631202697754
			],
			"min":[
				-8.781155586242676,
				0.03003537654876709,
				1.018662929534912
			],
			"type":"VEC3"
		},
		{
			"bufferView":21,
			"componentType":5126,
			"count":24,
			"type":"VEC3"
		},
		{
			"bufferView":22,
			"componentType":5126,
			"count":24,
			"type":"VEC2"
		},
		{
			"bufferView":23,
			"componentType":5126,
			"count":24,
			"type":"VEC4"
		},
		{
			"bufferView":24,
			"componentType":5126,
			"count":24,
			"max":[
				-8.813508033752441,
				3.0300354957580566,
				-0.651412844657898
			],
			"min":[
				-9.113509178161621,
				0.03003537654876709,
				-3.32175874710083
			],
			"type":"VEC3"
		},
		{
			"bufferView":25,
			"componentType":5126,
			"count":24,
			"type":"VEC3"
		},
		{
			"bufferView":26,
			"componentType":5126,
			"count":24,
			"type":"VEC2"
		},
		{
			"bufferView":27,
			"componentType":5126,
			"count":24,
			"type":"VEC4"
		},
		{
			"bufferView":28,
			"componentType":5126,
			"count":24,
			"max":[
				-11.06347370147705,
				3.0300354957580566,
				-0.651412844657898
			],
			"min":[
				-11.36347484588623,
				0.03003537654876709,
				-3.32175874710083
			],
			"type":"VEC3"
		},
		{
			"bufferView":29,
			"componentType":5126,
			"count":24,
			"type":"VEC3"
		},
		{
			"bufferView":30,
			"componentType":5126,
			"count":24,
			"type":"VEC2"
		},
		{
			"bufferView":31,
			"componentType":5126,
			"count":24,
			"type":"VEC4"
		},
		{
			"bufferView":32,
			"componentType":5126,
			"count":24,
			"max":[
				-13.211309432983398,
				3.0300354957580566,
				-0.5885194540023804
			],
			"min":[
				-19.528759002685547,
				0.03003537654876709,
				-0.8885196447372437
			],
			"type":"VEC3"
		},
		{
			"bufferView":33,
			"componentType":5126,
			"count":24,
			"type":"VEC3"
		},
		{
			"bufferView":34,
			"componentType":5126,
			"count":24,
			"type":"VEC2"
		},
		{
			"bufferView":35,
			"componentType":5126,
			"count":24,
			"type":"VEC4"
		},
		{
			"bufferView":36,
			"componentType":5126,
			"count":24,
			"max":[
				-8.483663558959961,
				3.0300354957580566,
				1.3186631202697754
			],
			"min":[
				-14.483663558959961,
				0.03003537654876709,
				1.018662929534912
			],
			"type":"VEC3"
		},
		{
			"bufferView":37,
			"componentType":5126,
			"count":24,
			"type":"VEC3"
		},
		{
			"bufferView":38,
			"componentType":5126,
			"count":24,
			"type":"VEC2"
		},
		{
			"bufferView":39,
			"componentType":5126,
			"count":24,
			"type":"VEC4"
		},
		{
			"bufferView":40,
			"componentType":5126,
			"count":24,
			"max":[
				-18.80264663696289,
				3.0300354957580566,
				1.3186631202697754
			],
			"min":[
				-24.80264663696289,
				0.03003537654876709,
				1.018662929534912
			],
			"type":"VEC3"
		},
		{
			"bufferView":41,
			"componentType":5126,
			"count":24,
			"type":"VEC3"
		},
		{
			"bufferView":42,
			"componentType":5126,
			"count":24,
			"type":"VEC2"
		},
		{
			"bufferView":43,
			"componentType":5126,
			"count":24,
			"type":"VEC4"
		},
		{
			"bufferView":44,
			"componentType":5126,
			"count":24,
			"max":[
				-14.315020561218262,
				3.0300354957580566,
				1.3186631202697754
			],
			"min":[
				-20.315021514892578,
				0.03003537654876709,
				1.018662929534912
			],
			"type":"VEC3"
		},
		{
			"bufferView":45,
			"componentType":5126,
			"count":24,
			"type":"VEC3"
		},
		{
			"bufferView":46,
			"componentType":5126,
			"count":24,
			"type":"VEC2"
		},
		{
			"bufferView":47,
			"componentType":5126,
			"count":24,
			"type":"VEC4"
		},
		{
			"bufferView":48,
			"componentType":5126,
			"count":24,
			"max":[
				-11.079431533813477,
				2.970778465270996,
				-3.024829626083374
			],
			"min":[
				-17.07943344116211,
				-0.029221653938293457,
				-3.3248298168182373
			],
			"type":"VEC3"
		},
		{
			"bufferView":49,
			"componentType":5126,
			"count":24,
			"type":"VEC3"
		},
		{
			"bufferView":50,
			"componentType":5126,
			"count":24,
			"type":"VEC2"
		},
		{
			"bufferView":51,
			"componentType":5126,
			"count":24,
			"type":"VEC4"
		},
		{
			"bufferView":52,
			"componentType":5126,
			"count":24,
			"max":[
				-11.079431533813477,
				2.970778465270996,
				-9.049936294555664
			],
			"min":[
				-17.07943344116211,
				-0.029221653938293457,
				-9.349935531616211
			],
			"type":"VEC3"
		},
		{
			"bufferView":53,
			"componentType":5126,
			"count":24,
			"type":"VEC3"
		},
		{
			"bufferView":54,
			"componentType":5126,
			"count":24,
			"type":"VEC2"
		},
		{
			"bufferView":55,
			"componentType":5126,
			"count":24,
			"type":"VEC4"
		},
		{
			"bufferView":56,
			"componentType":5126,
			"count":24,
			"max":[
				-4.8556108474731445,
				2.970778465270996,
				-9.049936294555664
			],
			"min":[
				-11.32761001586914,
				-0.029221653938293457,
				-9.349935531616211
			],
			"type":"VEC3"
		},
		{
			"bufferView":57,
			"componentType":5126,
			"count":24,
			"type":"VEC3"
		},
		{
			"bufferView":58,
			"componentType":5126,
			"count":24,
			"type":"VEC2"
		},
		{
			"bufferView":59,
			"componentType":5126,
			"count":24,
			"type":"VEC4"
		},
		{
			"bufferView":60,
			"componentType":5126,
			"count":26,
			"max":[
				2.912774085998535,
				3.0514636039733887,
				2.7380268573760986
			],
			"min":[
				2.612773895263672,
				0.05146372318267822,
				-2.9718620777130127
			],
			"type":"VEC3"
		},
		{
			"bufferView":61,
			"componentType":5126,
			"count":26,
			"type":"VEC3"
		},
		{
			"bufferView":62,
			"componentType":5126,
			"count":26,
			"type":"VEC2"
		},
		{
			"bufferView":63,
			"componentType":5126,
			"count":26,
			"type":"VEC4"
		},
		{
			"bufferView":64,
			"componentType":5123,
			"count":36,
			"type":"SCALAR"
		},
		{
			"bufferView":65,
			"componentType":5126,
			"count":26,
			"max":[
				-2.9208884239196777,
				3.01692533493042,
				-2.6792476177215576
			],
			"min":[
				-5.061279296875,
				-0.027738094329833984,
				-3.3429129123687744
			],
			"type":"VEC3"
		},
		{
			"bufferView":66,
			"componentType":5126,
			"count":26,
			"type":"VEC3"
		},
		{
			"bufferView":67,
			"componentType":5126,
			"count":26,
			"type":"VEC2"
		},
		{
			"bufferView":68,
			"componentType":5126,
			"count":26,
			"type":"VEC4"
		},
		{
			"bufferView":69,
			"componentType":5123,
			"count":36,
			"type":"SCALAR"
		},
		{
			"bufferView":70,
			"componentType":5126,
			"count":26,
			"max":[
				1.2817373275756836,
				3.01692533493042,
				-2.983821153640747
			],
			"min":[
				0.9817371368408203,
				-0.027738094329833984,
				-7.140405654907227
			],
			"type":"VEC3"
		},
		{
			"bufferView":71,
			"componentType":5126,
			"count":26,
			"type":"VEC3"
		},
		{
			"bufferView":72,
			"componentType":5126,
			"count":26,
			"type":"VEC2"
		},
		{
			"bufferView":73,
			"componentType":5126,
			"count":26,
			"type":"VEC4"
		},
		{
			"bufferView":74,
			"componentType":5126,
			"count":26,
			"max":[
				3.2071456909179688,
				3.01692533493042,
				-2.7150368690490723
			],
			"min":[
				2.9071455001831055,
				-0.027738094329833984,
				-9.705045700073242
			],
			"type":"VEC3"
		},
		{
			"bufferView":75,
			"componentType":5126,
			"count":26,
			"type":"VEC3"
		},
		{
			"bufferView":76,
			"componentType":5126,
			"count":26,
			"type":"VEC2"
		},
		{
			"bufferView":77,
			"componentType":5126,
			"count":26,
			"type":"VEC4"
		},
		{
			"bufferView":78,
			"componentType":5126,
			"count":26,
			"max":[
				3.5033650398254395,
				3.01692533493042,
				-9.321417808532715
			],
			"min":[
				-4.994349002838135,
				-0.027738094329833984,
				-9.621417999267578
			],
			"type":"VEC3"
		},
		{
			"bufferView":79,
			"componentType":5126,
			"count":26,
			"type":"VEC3"
		},
		{
			"bufferView":80,
			"componentType":5126,
			"count":26,
			"type":"VEC2"
		},
		{
			"bufferView":81,
			"componentType":5126,
			"count":26,
			"type":"VEC4"
		},
		{
			"bufferView":82,
			"componentType":5123,
			"count":36,
			"type":"SCALAR"
		},
		{
			"bufferView":83,
			"componentType":5126,
			"count":48,
			"max":[
				-2.7077651023864746,
				3.0332109928131104,
				3
			],
			"min":[
				-3.007765293121338,
				0.03321123123168945,
				-3.000000476837158
			],
			"type":"VEC3"
		},
		{
			"bufferView":84,
			"componentType":5126,
			"count":48,
			"type":"VEC3"
		},
		{
			"bufferView":85,
			"componentType":5126,
			"count":48,
			"type":"VEC2"
		},
		{
			"bufferView":86,
			"componentType":5126,
			"count":48,
			"type":"VEC4"
		},
		{
			"bufferView":87,
			"componentType":5123,
			"count":84,
			"type":"SCALAR"
		},
		{
			"bufferView":88,
			"componentType":5126,
			"count":50,
			"max":[
				-4.709375858306885,
				3.0332109928131104,
				-3.300494909286499
			],
			"min":[
				-5.009376049041748,
				0.03321123123168945,
				-9.300495147705078
			],
			"type":"VEC3"
		},
		{
			"bufferView":89,
			"componentType":5126,
			"count":50,
			"type":"VEC3"
		},
		{
			"bufferView":90,
			"componentType":5126,
			"count":50,
			"type":"VEC2"
		},
		{
			"bufferView":91,
			"componentType":5126,
			"count":50,
			"type":"VEC4"
		},
		{
			"bufferView":92,
			"componentType":5123,
			"count":84,
			"type":"SCALAR"
		},
		{
			"bufferView":93,
			"componentType":5126,
			"count":58,
			"max":[
				-7.289114475250244,
				3.0051732063293457,
				-0.5959049463272095
			],
			"min":[
				-13.289113998413086,
				0.0051735639572143555,
				-0.8959053754806519
			],
			"type":"VEC3"
		},
		{
			"bufferView":94,
			"componentType":5126,
			"count":58,
			"type":"VEC3"
		},
		{
			"bufferView":95,
			"componentType":5126,
			"count":58,
			"type":"VEC2"
		},
		{
			"bufferView":96,
			"componentType":5126,
			"count":58,
			"type":"VEC4"
		},
		{
			"bufferView":97,
			"componentType":5123,
			"count":84,
			"type":"SCALAR"
		},
		{
			"bufferView":98,
			"componentType":5126,
			"count":48,
			"max":[
				-18.836994171142578,
				3.0051732063293457,
				-0.5959049463272095
			],
			"min":[
				-24.836994171142578,
				0.0051735639572143555,
				-0.8959053754806519
			],
			"type":"VEC3"
		},
		{
			"bufferView":99,
			"componentType":5126,
			"count":48,
			"type":"VEC3"
		},
		{
			"bufferView":100,
			"componentType":5126,
			"count":48,
			"type":"VEC2"
		},
		{
			"bufferView":101,
			"componentType":5126,
			"count":48,
			"type":"VEC4"
		},
		{
			"bufferView":102,
			"componentType":5123,
			"count":84,
			"type":"SCALAR"
		},
		{
			"bufferView":103,
			"componentType":5126,
			"count":51,
			"max":[
				-24.76194190979004,
				3.0051732063293457,
				3.5354557037353516
			],
			"min":[
				-25.061941146850586,
				0.0051735639572143555,
				-2.4645442962646484
			],
			"type":"VEC3"
		},
		{
			"bufferView":104,
			"componentType":5126,
			"count":51,
			"type":"VEC3"
		},
		{
			"bufferView":105,
			"componentType":5126,
			"count":51,
			"type":"VEC2"
		},
		{
			"bufferView":106,
			"componentType":5126,
			"count":51,
			"type":"VEC4"
		},
		{
			"bufferView":107,
			"componentType":5123,
			"count":84,
			"type":"SCALAR"
		},
		{
			"bufferView":108,
			"componentType":5126,
			"count":124,
			"max":[
				3.15549898147583,
				2.943716526031494,
				-2.6921207904815674
			],
			"min":[
				-2.84450101852417,
				-0.05628359317779541,
				-2.9921207427978516
			],
			"type":"VEC3"
		},
		{
			"bufferView":109,
			"componentType":5126,
			"count":124,
			"type":"VEC3"
		},
		{
			"bufferView":110,
			"componentType":5126,
			"count":124,
			"type":"VEC2"
		},
		{
			"bufferView":111,
			"componentType":5126,
			"count":124,
			"type":"VEC4"
		},
		{
			"bufferView":112,
			"componentType":5123,
			"count":168,
			"type":"SCALAR"
		}
	],
	"bufferViews":[
		{
			"buffer":0,
			"byteLength":288,
			"byteOffset":0,
			"target":34962
		},
		{
			"buffer":0,
			"byteLength":288,
			"byteOffset":288,
			"target":34962
		},
		{
			"buffer":0,
			"byteLength":192,
			"byteOffset":576,
			"target":34962
		},
		{
			"buffer":0,
			"byteLength":384,
			"byteOffset":768,
			"target":34962
		},
		{
			"buffer":0,
			"byteLength":72,
			"byteOffset":1152,
			"target":34963
		},
		{
			"buffer":0,
			"byteLength":288,
			"byteOffset":1224,
			"target":34962
		},
		{
			"buffer":0,
			"byteLength":288,
			"byteOffset":1512,
			"target":34962
		},
		{
			"buffer":0,
			"byteLength":192,
			"byteOffset":1800,
			"target":34962
		},
		{
			"buffer":0,
			"byteLength":384,
			"byteOffset":1992,
			"target":34962
		},
		{
			"buffer":0,
			"byteLength":72,
			"byteOffset":2376,
			"target":34963
		},
		{
			"buffer":0,
			"byteLength":288,
			"byteOffset":2448,
			"target":34962
		},
		{
			"buffer":0,
			"byteLength":288,
			"byteOffset":2736,
			"target":34962
		},
		{
			"buffer":0,
			"byteLength":192,
			"byteOffset":3024,
			"target":34962
		},
		{
			"buffer":0,
			"byteLength":384,
			"byteOffset":3216,
			"target":34962
		},
		{
			"buffer":0,
			"byteLength":72,
			"byteOffset":3600,
			"target":34963
		},
		{
			"buffer":0,
			"byteLength":288,
			"byteOffset":3672,
			"target":34962
		},
		{
			"buffer":0,
			"byteLength":288,
			"byteOffset":3960,
			"target":34962
		},
		{
			"buffer":0,
			"byteLength":192,
			"byteOffset":4248,
			"target":34962
		},
		{
			"buffer":0,
			"byteLength":384,
			"byteOffset":4440,
			"target":34962
		},
		{
			"buffer":0,
			"byteLength":72,
			"byteOffset":4824,
			"target":34963
		},
		{
			"buffer":0,
			"byteLength":288,
			"byteOffset":4896,
			"target":34962
		},
		{
			"buffer":0,
			"byteLength":288,
			"byteOffset":5184,
			"target":34962
		},
		{
			"buffer":0,
			"byteLength":192,
			"byteOffset":5472,
			"target":34962
		},
		{
			"buffer":0,
			"byteLength":384,
			"byteOffset":5664,
			"target":34962
		},
		{
			"buffer":0,
			"byteLength":288,
			"byteOffset":6048,
			"target":34962
		},
		{
			"buffer":0,
			"byteLength":288,
			"byteOffset":6336,
			"target":34962
		},
		{
			"buffer":0,
			"byteLength":192,
			"byteOffset":6624,
			"target":34962
		},
		{
			"buffer":0,
			"byteLength":384,
			"byteOffset":6816,
			"target":34962
		},
		{
			"buffer":0,
			"byteLength":288,
			"byteOffset":7200,
			"target":34962
		},
		{
			"buffer":0,
			"byteLength":288,
			"byteOffset":7488,
			"target":34962
		},
		{
			"buffer":0,
			"byteLength":192,
			"byteOffset":7776,
			"target":34962
		},
		{
			"buffer":0,
			"byteLength":384,
			"byteOffset":7968,
			"target":34962
		},
		{
			"buffer":0,
			"byteLength":288,
			"byteOffset":8352,
			"target":34962
		},
		{
			"buffer":0,
			"byteLength":288,
			"byteOffset":8640,
			"target":34962
		},
		{
			"buffer":0,
			"byteLength":192,
			"byteOffset":8928,
			"target":34962
		},
		{
			"buffer":0,
			"byteLength":384,
			"byteOffset":9120,
			"target":34962
		},
		{
			"buffer":0,
			"byteLength":288,
			"byteOffset":9504,
			"target":34962
		},
		{
			"buffer":0,
			"byteLength":288,
			"byteOffset":9792,
			"target":34962
		},
		{
			"buffer":0,
			"byteLength":192,
			"byteOffset":10080,
			"target":34962
		},
		{
			"buffer":0,
			"byteLength":384,
			"byteOffset":10272,
			"target":34962
		},
		{
			"buffer":0,
			"byteLength":288,
			"byteOffset":10656,
			"target":34962
		},
		{
			"buffer":0,
			"byteLength":288,
			"byteOffset":10944,
			"target":34962
		},
		{
			"buffer":0,
			"byteLength":192,
			"byteOffset":11232,
			"target":34962
		},
		{
			"buffer":0,
			"byteLength":384,
			"byteOffset":11424,
			"target":34962
		},
		{
			"buffer":0,
			"byteLength":288,
			"byteOffset":11808,
			"target":34962
		},
		{
			"buffer":0,
			"byteLength":288,
			"byteOffset":12096,
			"target":34962
		},
		{
			"buffer":0,
			"byteLength":192,
			"byteOffset":12384,
			"target":34962
		},
		{
			"buffer":0,
			"byteLength":384,
			"byteOffset":12576,
			"target":34962
		},
		{
			"buffer":0,
			"byteLength":288,
			"byteOffset":12960,
			"target":34962
		},
		{
			"buffer":0,
			"byteLength":288,
			"byteOffset":13248,
			"target":34962
		},
		{
			"buffer":0,
			"byteLength":192,
			"byteOffset":13536,
			"target":34962
		},
		{
			"buffer":0,
			"byteLength":384,
			"byteOffset":13728,
			"target":34962
		},
		{
			"buffer":0,
			"byteLength":288,
			"byteOffset":14112,
			"target":34962
		},
		{
			"buffer":0,
			"byteLength":288,
			"byteOffset":14400,
			"target":34962
		},
		{
			"buffer":0,
			"byteLength":192,
			"byteOffset":14688,
			"target":34962
		},
		{
			"buffer":0,
			"byteLength":384,
			"byteOffset":14880,
			"target":34962
		},
		{
			"buffer":0,
			"byteLength":288,
			"byteOffset":15264,
			"target":34962
		},
		{
			"buffer":0,
			"byteLength":288,
			"byteOffset":15552,
			"target":34962
		},
		{
			"buffer":0,
			"byteLength":192,
			"byteOffset":15840,
			"target":34962
		},
		{
			"buffer":0,
			"byteLength":384,
			"byteOffset":16032,
			"target":34962
		},
		{
			"buffer":0,
			"byteLength":312,
			"byteOffset":16416,
			"target":34962
		},
		{
			"buffer":0,
			"byteLength":312,
			"byteOffset":16728,
			"target":34962
		},
		{
			"buffer":0,
			"byteLength":208,
			"byteOffset":17040,
			"target":34962
		},
		{
			"buffer":0,
			"byteLength":416,
			"byteOffset":17248,
			"target":34962
		},
		{
			"buffer":0,
			"byteLength":72,
			"byteOffset":17664,
			"target":34963
		},
		{
			"buffer":0,
			"byteLength":312,
			"byteOffset":17736,
			"target":34962
		},
		{
			"buffer":0,
			"byteLength":312,
			"byteOffset":18048,
			"target":34962
		},
		{
			"buffer":0,
			"byteLength":208,
			"byteOffset":18360,
			"target":34962
		},
		{
			"buffer":0,
			"byteLength":416,
			"byteOffset":18568,
			"target":34962
		},
		{
			"buffer":0,
			"byteLength":72,
			"byteOffset":18984,
			"target":34963
		},
		{
			"buffer":0,
			"byteLength":312,
			"byteOffset":19056,
			"target":34962
		},
		{
			"buffer":0,
			"byteLength":312,
			"byteOffset":19368,
			"target":34962
		},
		{
			"buffer":0,
			"byteLength":208,
			"byteOffset":19680,
			"target":34962
		},
		{
			"buffer":0,
			"byteLength":416,
			"byteOffset":19888,
			"target":34962
		},
		{
			"buffer":0,
			"byteLength":312,
			"byteOffset":20304,
			"target":34962
		},
		{
			"buffer":0,
			"byteLength":312,
			"byteOffset":20616,
			"target":34962
		},
		{
			"buffer":0,
			"byteLength":208,
			"byteOffset":20928,
			"target":34962
		},
		{
			"buffer":0,
			"byteLength":416,
			"byteOffset":21136,
			"target":34962
		},
		{
			"buffer":0,
			"byteLength":312,
			"byteOffset":21552,
			"target":34962
		},
		{
			"buffer":0,
			"byteLength":312,
			"byteOffset":21864,
			"target":34962
		},
		{
			"buffer":0,
			"byteLength":208,
			"byteOffset":22176,
			"target":34962
		},
		{
			"buffer":0,
			"byteLength":416,
			"byteOffset":22384,
			"target":34962
		},
		{
			"buffer":0,
			"byteLength":72,
			"byteOffset":22800,
			"target":34963
		},
		{
			"buffer":0,
			"byteLength":576,
			"byteOffset":22872,
			"target":34962
		},
		{
			"buffer":0,
			"byteLength":576,
			"byteOffset":23448,
			"target":34962
		},
		{
			"buffer":0,
			"byteLength":384,
			"byteOffset":24024,
			"target":34962
		},
		{
			"buffer":0,
			"byteLength":768,
			"byteOffset":24408,
			"target":34962
		},
		{
			"buffer":0,
			"byteLength":168,
			"byteOffset":25176,
			"target":34963
		},
		{
			"buffer":0,
			"byteLength":600,
			"byteOffset":25344,
			"target":34962
		},
		{
			"buffer":0,
			"byteLength":600,
			"byteOffset":25944,
			"target":34962
		},
		{
			"buffer":0,
			"byteLength":400,
			"byteOffset":26544,
			"target":34962
		},
		{
			"buffer":0,
			"byteLength":800,
			"byteOffset":26944,
			"target":34962
		},
		{
			"buffer":0,
			"byteLength":168,
			"byteOffset":27744,
			"target":34963
		},
		{
			"buffer":0,
			"byteLength":696,
			"byteOffset":27912,
			"target":34962
		},
		{
			"buffer":0,
			"byteLength":696,
			"byteOffset":28608,
			"target":34962
		},
		{
			"buffer":0,
			"byteLength":464,
			"byteOffset":29304,
			"target":34962
		},
		{
			"buffer":0,
			"byteLength":928,
			"byteOffset":29768,
			"target":34962
		},
		{
			"buffer":0,
			"byteLength":168,
			"byteOffset":30696,
			"target":34963
		},
		{
			"buffer":0,
			"byteLength":576,
			"byteOffset":30864,
			"target":34962
		},
		{
			"buffer":0,
			"byteLength":576,
			"byteOffset":31440,
			"target":34962
		},
		{
			"buffer":0,
			"byteLength":384,
			"byteOffset":32016,
			"target":34962
		},
		{
			"buffer":0,
			"byteLength":768,
			"byteOffset":32400,
			"target":34962
		},
		{
			"buffer":0,
			"byteLength":168,
			"byteOffset":33168,
			"target":34963
		},
		{
			"buffer":0,
			"byteLength":612,
			"byteOffset":33336,
			"target":34962
		},
		{
			"buffer":0,
			"byteLength":612,
			"byteOffset":33948,
			"target":34962
		},
		{
			"buffer":0,
			"byteLength":408,
			"byteOffset":34560,
			"target":34962
		},
		{
			"buffer":0,
			"byteLength":816,
			"byteOffset":34968,
			"target":34962
		},
		{
			"buffer":0,
			"byteLength":168,
			"byteOffset":35784,
			"target":34963
		},
		{
			"buffer":0,
			"byteLength":1488,
			"byteOffset":35952,
			"target":34962
		},
		{
			"buffer":0,
			"byteLength":1488,
			"byteOffset":37440,
			"target":34962
		},
		{
			"buffer":0,
			"byteLength":992,
			"byteOffset":38928,
			"target":34962
		},
		{
			"buffer":0,
			"byteLength":1984,
			"byteOffset":39920,
			"target":34962
		},
		{
			"buffer":0,
			"byteLength":336,
			"byteOffset":41904,
			"target":34963
		}
	],
	"buffers":[
		{
			"byteLength":42240,
			"uri":"map_structure.bin"
		}
	]
}
